<svg xmlns="http://www.w3.org/2000/svg" width="24" height="24" viewBox="0 0 24 24" fill="none">
  <!-- Sun icon for dark theme (to switch to light) -->
  <path d="M12 7C9.24 7 7 9.24 7 12C7 14.76 9.24 17 12 17C14.76 17 17 14.76 17 12C17 9.24 14.76 7 12 7ZM2 13H4C4.55 13 5 12.55 5 12C5 11.45 4.55 11 4 11H2C1.45 11 1 11.45 1 12C1 12.55 1.45 13 2 13ZM20 13H22C22.55 13 23 12.55 23 12C23 11.45 22.55 11 22 11H20C19.45 11 19 11.45 19 12C19 12.55 19.45 13 20 13ZM11 2V4C11 4.55 11.45 5 12 5C12.55 5 13 4.55 13 4V2C13 1.45 12.55 1 12 1C11.45 1 11 1.45 11 2ZM11 20V22C11 22.55 11.45 23 12 23C12.55 23 13 22.55 13 22V20C13 19.45 12.55 19 12 19C11.45 19 11 19.45 11 20ZM5.99 4.58C5.6 4.19 5.6 3.56 5.99 3.17C6.38 2.78 7.01 2.78 7.4 3.17L8.81 4.58C9.2 4.97 9.2 5.6 8.81 5.99C8.42 6.38 7.79 6.38 7.4 5.99L5.99 4.58ZM18.01 19.42C17.62 19.81 17.62 20.44 18.01 20.83C18.4 21.22 19.03 21.22 19.42 20.83L20.83 19.42C21.22 19.03 21.22 18.4 20.83 18.01C20.44 17.62 19.81 17.62 19.42 18.01L18.01 19.42ZM20.83 4.58L19.42 5.99C19.03 6.38 18.4 6.38 18.01 5.99C17.62 5.6 17.62 4.97 18.01 4.58L19.42 3.17C19.81 2.78 20.44 2.78 20.83 3.17C21.22 3.56 21.22 4.19 20.83 4.58ZM4.58 18.01L5.99 19.42C6.38 19.81 7.01 19.81 7.4 19.42C7.79 19.03 7.79 18.4 7.4 18.01L5.99 16.6C5.6 16.21 4.97 16.21 4.58 16.6C4.19 16.99 4.19 17.62 4.58 18.01Z" fill="#90CAF9"/>
</svg>
